HIERARCHY
ROOT Hips
{
	OFFSET -0.001795 -0.223333 0.028219
	CHANNELS 6 Xposition Yposition Zposition Zrotation Yrotation Xrotation 
	JOINT LeftUpLeg
	{
		OFFSET 0.069520 -0.091406 -0.006815
		CHANNELS 3 Zrotation Yrotation Xrotation
		JOINT LeftLeg
		{
			OFFSET 0.034277 -0.375199 -0.004496
			CHANNELS 3 Zrotation Yrotation Xrotation
			JOINT LeftFoot
			{
				OFFSET -0.013596 -0.397961 -0.043693
				CHANNELS 3 Zrotation Yrotation Xrotation
				JOINT LeftToe
				{
					OFFSET 0.026358 -0.055791 0.119288
					CHANNELS 3 Zrotation Yrotation Xrotation
					End Site
					{
						OFFSET 0.000000 0.000000 0.000000
					}
				}
			}
		}
	}
	JOINT RightUpLeg
	{
		OFFSET -0.067670 -0.090522 -0.004320
		CHANNELS 3 Zrotation Yrotation Xrotation
		JOINT RightLeg
		{
			OFFSET -0.038290 -0.382569 -0.008850
			CHANNELS 3 Zrotation Yrotation Xrotation
			JOINT RightFoot
			{
				OFFSET 0.015774 -0.398415 -0.042312
				CHANNELS 3 Zrotation Yrotation Xrotation
				JOINT RightToe
				{
					OFFSET -0.025372 -0.048144 0.123348
					CHANNELS 3 Zrotation Yrotation Xrotation
					End Site
					{
						OFFSET 0.000000 0.000000 0.000000
					}
				}
			}
		}
	}
	JOINT Spine
	{
		OFFSET -0.002533 0.108963 -0.026696
		CHANNELS 3 Zrotation Yrotation Xrotation
		JOINT Spine1
		{
			OFFSET 0.005487 0.135180 0.001092
			CHANNELS 3 Zrotation Yrotation Xrotation
			JOINT Spine2
			{
				OFFSET 0.001457 0.052922 0.025425
				CHANNELS 3 Zrotation Yrotation Xrotation
				JOINT Neck
				{
					OFFSET -0.002778 0.213870 -0.042857
					CHANNELS 3 Zrotation Yrotation Xrotation
					JOINT Head
					{
						OFFSET 0.005152 0.064970 0.051349
						CHANNELS 3 Zrotation Yrotation Xrotation
						End Site
						{
							OFFSET 0.000000 0.000000 0.000000
						}
					}
				}
				JOINT LeftShoulder
				{
					OFFSET 0.078845 0.121749 -0.034090
					CHANNELS 3 Zrotation Yrotation Xrotation
					JOINT LeftArm
					{
						OFFSET 0.090977 0.030469 -0.008868
						CHANNELS 3 Zrotation Yrotation Xrotation
						JOINT LeftForeArm
						{
							OFFSET 0.259612 -0.012772 -0.027456
							CHANNELS 3 Zrotation Yrotation Xrotation
							JOINT LeftHand
							{
								OFFSET 0.249234 0.008986 -0.001171
								CHANNELS 3 Zrotation Yrotation Xrotation
								End Site
								{
									OFFSET 0.000000 0.000000 0.000000
								}
							}
						}
					}
				}
				JOINT RightShoulder
				{
					OFFSET -0.081759 0.118833 -0.038615
					CHANNELS 3 Zrotation Yrotation Xrotation
					JOINT RightArm
					{
						OFFSET -0.096012 0.032551 -0.009143
						CHANNELS 3 Zrotation Yrotation Xrotation
						JOINT RightForeArm
						{
							OFFSET -0.253742 -0.013329 -0.021401
							CHANNELS 3 Zrotation Yrotation Xrotation
							JOINT RightHand
							{
								OFFSET -0.255298 0.007772 -0.005559
								CHANNELS 3 Zrotation Yrotation Xrotation
								End Site
								{
									OFFSET 0.000000 0.000000 0.000000
								}
							}
						}
					}
				}
			}
		}
	}
}
MOTION
Frames: 12
Frame Time: 0.050000
0.000000 0.948965 0.000000 0.855251 5.348639 3.952750 9.188808 -0.585633 -16.263210 -6.469595 0.838104 19.898260 3.858659 11.217988 11.065201 0.000000 0.000000 0.000000 -0.170440 1.315769 -13.982214 1.789181 -0.021366 13.725890 0.226183 -2.070579 6.655623 0.000000 0.000000 0.000000 5.161357 -0.997830 9.762878 -1.845287 0.902667 -1.695489 -3.677224 0.867950 8.979157 4.246488 -2.810016 -4.141156 0.000000 0.000000 0.000000 -13.895565 -2.583097 -0.712163 -49.786210 12.504375 -11.164503 -72.422438 -45.478584 35.419161 0.000000 0.000000 0.000000 7.849657 -8.229471 -3.816539 50.894557 -32.525548 -17.809910 92.634061 36.552878 40.573129 0.000000 0.000000 0.000000 
0.005177 0.949757 0.006023 0.720769 5.172573 5.060036 11.206283 -0.406866 -17.411408 -5.567846 0.618065 18.674176 6.216841 15.385778 14.148988 0.000000 0.000000 0.000000 -0.249832 1.338042 -14.283393 1.490664 0.057706 13.866486 0.398748 -1.047354 4.896412 0.000000 0.000000 0.000000 5.984708 -0.998117 8.618841 -1.543244 0.746392 -1.241848 -4.177781 0.520557 8.680018 1.837303 -0.461509 -8.035746 0.000000 0.000000 0.000000 -13.962852 0.477701 -2.119418 -48.468116 12.740943 -10.862461 -78.093085 -44.143639 37.744904 0.000000 0.000000 0.000000 5.846565 -7.098883 -3.140864 50.743232 -34.272890 -18.380586 98.236382 34.546604 41.704136 0.000000 0.000000 0.000000 
0.013196 0.950327 0.011604 1.143368 4.315963 4.108649 12.638081 -0.185755 -16.276254 -3.486605 0.176052 15.265403 3.111978 11.114900 16.356571 0.000000 0.000000 0.000000 0.141633 1.356270 -13.936316 0.297323 0.407248 15.542885 -0.714861 -3.637217 4.878653 0.000000 0.000000 0.000000 5.874414 -1.174757 10.776262 -1.554526 0.798953 -3.027476 -4.749628 1.416657 10.495546 2.573789 -1.132434 -6.737299 0.000000 0.000000 0.000000 -13.830913 1.106854 -2.454664 -48.090492 13.266740 -11.112885 -82.089913 -46.036839 41.963933 0.000000 0.000000 0.000000 4.391284 -7.754772 -3.224101 52.154885 -32.546625 -18.307117 97.184235 34.531588 41.522921 0.000000 0.000000 0.000000 
0.024479 0.951187 0.017283 1.417197 3.831508 4.675651 13.902180 -0.047722 -16.088744 -2.108969 -0.009815 10.692412 1.377801 9.043319 18.525900 0.000000 0.000000 0.000000 -0.563336 1.382537 -14.971191 0.265017 0.461091 16.802647 -1.200243 -4.908688 5.328152 0.000000 0.000000 0.000000 5.618157 -1.157269 10.863185 -1.530985 0.799468 -3.810428 -4.703869 1.744706 11.062019 2.604209 -1.064366 -7.375288 0.000000 0.000000 0.000000 -13.988391 2.794057 -3.287415 -47.589165 13.529571 -11.099632 -86.798040 -45.235465 44.366513 0.000000 0.000000 0.000000 3.375024 -8.555844 -3.437103 50.250012 -30.318401 -16.643127 97.779980 32.722675 39.889474 0.000000 0.000000 0.000000 
0.039781 0.950451 0.022811 1.661232 3.209979 4.083744 14.635088 0.069989 -15.558596 -0.212694 -0.236496 7.227645 -1.183447 5.536774 19.365018 0.000000 0.000000 0.000000 -1.628090 1.211614 -14.116605 0.013473 0.541379 16.460171 -1.140100 -5.075204 6.139474 0.000000 0.000000 0.000000 4.938120 -1.173212 12.152410 -1.435019 0.751245 -3.625285 -4.488441 1.805604 11.413223 3.391812 -1.509302 -8.603942 0.000000 0.000000 0.000000 -13.680526 2.791023 -3.163233 -48.815293 13.123806 -11.338800 -94.728212 -47.972195 53.500608 0.000000 0.000000 0.000000 3.155161 -7.242716 -2.900613 51.253239 -27.233414 -15.920877 98.801705 33.206418 41.217971 0.000000 0.000000 0.000000 
0.059255 0.948204 0.028349 1.848815 2.822108 3.613315 14.868530 0.144632 -15.907730 1.317606 -0.390212 5.233526 -4.223644 1.155045 19.558985 0.000000 0.000000 0.000000 -2.891078 1.039944 -13.378237 -0.934332 0.808968 16.661165 -0.362118 -3.311024 5.886410 0.000000 0.000000 0.000000 3.827320 -1.128085 13.530803 -1.469886 0.756172 -3.184127 -3.849433 2.563153 10.837693 4.669483 -2.257948 -9.485969 0.000000 0.000000 0.000000 -14.058161 2.528415 -3.203326 -47.751819 12.432754 -10.721157 -103.748309 -49.514325 62.807574 0.000000 0.000000 0.000000 4.047965 -6.245809 -2.573595 49.965349 -25.163012 -14.621507 100.147525 34.495361 44.014145 0.000000 0.000000 0.000000 
0.083443 0.945615 0.034300 0.986334 2.761572 4.021430 15.660160 0.259087 -16.925643 1.088853 -0.339001 4.895525 -5.667253 -0.499390 20.709834 0.000000 0.000000 0.000000 -4.453024 0.909743 -13.541173 -0.026558 0.567496 16.498046 0.590539 -1.577974 6.831664 0.000000 0.000000 0.000000 4.233277 -1.197728 13.569160 -1.278916 0.654715 -2.470268 -3.904710 3.272719 10.389690 5.711626 -2.980335 -9.262406 0.000000 0.000000 0.000000 -13.413233 1.377528 -2.676608 -48.098037 11.742038 -10.525619 -110.394933 -49.893738 69.348805 0.000000 0.000000 0.000000 5.008882 -5.407734 -2.282900 47.993729 -22.438713 -12.933199 100.316259 36.558546 47.061569 0.000000 0.000000 0.000000 
0.112836 0.942270 0.040756 0.232915 1.694389 4.048757 16.121564 0.401463 -17.159071 0.383025 -0.242928 5.198649 -5.443091 -0.460791 20.466507 0.000000 0.000000 0.000000 -5.603694 0.841799 -13.808597 -0.558652 0.756851 16.859003 1.785647 0.316213 8.188418 0.000000 0.000000 0.000000 4.195288 -1.165415 13.423715 -1.446900 0.712433 -1.872727 -3.279850 4.326603 10.212179 6.505099 -3.559921 -9.035651 0.000000 0.000000 0.000000 -13.710959 1.195913 -2.718351 -46.328673 11.028192 -9.774443 -116.908385 -51.785149 78.498073 0.000000 0.000000 0.000000 5.769887 -4.565885 -1.957854 45.097245 -19.899325 -11.238757 101.822797 38.052935 50.335724 0.000000 0.000000 0.000000 
0.145985 0.940873 0.047472 -0.426573 0.746596 4.240154 15.481145 0.392911 -17.320368 -0.051614 -0.206960 6.209099 -3.532367 1.357335 18.342686 0.000000 0.000000 0.000000 -6.734909 0.763143 -13.713290 -1.444450 0.975628 16.011054 2.880550 1.179474 11.024205 0.000000 0.000000 0.000000 4.443431 -1.170484 13.187424 -1.687992 0.814444 -1.682504 -2.629136 4.449444 9.921739 7.239131 -4.190550 -8.690612 0.000000 0.000000 0.000000 -13.693016 0.279401 -2.206984 -46.319331 9.226474 -9.094795 -118.644128 -54.896930 84.719312 0.000000 0.000000 0.000000 5.679995 -3.121276 -1.380279 42.596735 -17.740880 -9.898372 103.780360 39.456694 53.373434 0.000000 0.000000 0.000000 
0.181472 0.940965 0.053492 -0.789864 -0.348549 4.315873 14.447495 0.361790 -18.051340 -0.842078 -0.123297 8.305765 -1.620294 3.534839 16.835524 0.000000 0.000000 0.000000 -8.261263 0.656123 -13.432015 -1.879437 1.069472 15.208182 3.355500 0.687216 13.792856 0.000000 0.000000 0.000000 4.461357 -1.171957 13.364990 -2.082107 0.989358 -1.835173 -2.379178 4.240734 10.297875 8.156336 -4.722067 -9.784453 0.000000 0.000000 0.000000 -13.629227 -1.594023 -1.150926 -46.650229 6.265144 -8.148222 -119.641508 -58.709216 91.150917 0.000000 0.000000 0.000000 6.024967 -2.505007 -1.186273 40.755384 -14.525983 -8.578205 106.160583 40.443586 56.299298 0.000000 0.000000 0.000000 
0.217488 0.942404 0.059184 -1.490120 -2.188916 4.351394 13.193446 0.324531 -18.553339 -1.381303 -0.038983 10.771383 1.061499 6.752449 14.596901 0.000000 0.000000 0.000000 -8.854012 0.682617 -13.841373 -2.749004 1.282487 14.615644 3.448909 -1.438476 18.443570 0.000000 0.000000 0.000000 4.451315 -1.168374 13.696118 -2.645398 1.237389 -1.807426 -2.108000 4.261491 9.961492 9.084643 -5.697456 -8.618612 0.000000 0.000000 0.000000 -13.104352 -3.945251 0.185415 -46.944751 1.307440 -6.388995 -113.851116 -65.491015 92.842494 0.000000 0.000000 0.000000 5.566904 -1.066396 -0.634801 40.711952 -11.485194 -7.673232 106.780610 42.264658 58.675306 0.000000 0.000000 0.000000 
0.253336 0.943300 0.064714 -2.055425 -4.215137 4.369583 12.051301 0.313575 -19.589598 -1.631399 0.035613 13.736119 2.718067 8.829648 13.362266 0.000000 0.000000 0.000000 -9.647015 0.738267 -15.537180 -3.137946 1.495465 15.534569 3.540066 -2.629650 20.889109 0.000000 0.000000 0.000000 4.466667 -1.209406 14.750946 -2.957979 1.360086 -2.527558 -2.368770 4.210073 10.235499 9.204908 -5.851305 -8.722176 0.000000 0.000000 0.000000 -12.923851 -6.421517 1.574407 -46.962160 -3.284311 -4.759427 -106.647097 -71.685715 92.399991 0.000000 0.000000 0.000000 5.779500 0.181351 -0.202877 41.610539 -9.483676 -7.302355 106.272829 43.084921 58.684802 0.000000 0.000000 0.000000 
